<?xml version="1.0" encoding="UTF-8" standalone="no"?>
<!-- Generator: Adobe Illustrator 13.0.0, SVG Export Plug-In . SVG Version: 6.00 Build 14948)  -->

<svg
   xmlns:ns="&amp;#38;ns_ai;"
   xmlns:dc="http://purl.org/dc/elements/1.1/"
   xmlns:cc="http://creativecommons.org/ns#"
   xmlns:rdf="http://www.w3.org/1999/02/22-rdf-syntax-ns#"
   xmlns:svg="http://www.w3.org/2000/svg"
   xmlns="http://www.w3.org/2000/svg"
   xmlns:sodipodi="http://sodipodi.sourceforge.net/DTD/sodipodi-0.dtd"
   xmlns:inkscape="http://www.inkscape.org/namespaces/inkscape"
   version="1.1"
   ns:viewOrigin="0 255"
   ns:rulerOrigin="0 0"
   ns:pageBounds="0 300 255 0"
   x="0px"
   y="0px"
   width="1000"
   height="837.92999"
   viewBox="0 0 1000 837.93"
   enable-background="new 0 0 300 255"
   xml:space="preserve"
   id="svg8426"
   sodipodi:docname="NASA (Print) (Flared).svg"
   inkscape:version="0.92.3 (2405546, 2018-03-11)"><metadata
   id="metadata8432"><rdf:RDF><cc:Work
       rdf:about=""><dc:format>image/svg+xml</dc:format><dc:type
         rdf:resource="http://purl.org/dc/dcmitype/StillImage" /><dc:title></dc:title></cc:Work></rdf:RDF></metadata><defs
   id="defs8430">
	

		
	
			
		
				
				
				
				
				
				
				
				
				
				
				
				
				
				
				
				
				
				
				
				
				
				
				
				
				
				
				
				
				
				
				
				
				
				
				
				
				
				
				
				
				
				
				
				
				
				
				
				
				
				
				
				
				
				
				
				
			<linearGradient
   x1="0"
   y1="0"
   x2="1"
   y2="0"
   gradientUnits="userSpaceOnUse"
   gradientTransform="matrix(886.37799,0,0,886.37799,113.61963,415.43993)"
   spreadMethod="pad"
   id="linearGradient9582-339"><stop
     style="stop-opacity:1;stop-color:#181818;opacity:1"
     offset="0"
     id="stop10322" /><stop
     style="stop-opacity:1;stop-color:#484848;opacity:1"
     offset="1"
     id="stop10324" /></linearGradient></defs><sodipodi:namedview
   pagecolor="#ffffff"
   bordercolor="#666666"
   borderopacity="1"
   objecttolerance="10"
   gridtolerance="10"
   guidetolerance="10"
   inkscape:pageopacity="0"
   inkscape:pageshadow="2"
   inkscape:window-width="1360"
   inkscape:window-height="706"
   id="namedview8428"
   showgrid="false"
   inkscape:zoom="0.3272102"
   inkscape:cx="596.26975"
   inkscape:cy="764.73705"
   inkscape:window-x="-8"
   inkscape:window-y="-8"
   inkscape:window-maximized="1"
   inkscape:current-layer="svg8426"
   inkscape:lockguides="false" />

<path
   style="color:#000000;font-style:normal;font-variant:normal;font-weight:normal;font-stretch:normal;font-size:medium;line-height:normal;font-family:sans-serif;font-variant-ligatures:normal;font-variant-position:normal;font-variant-caps:normal;font-variant-numeric:normal;font-variant-alternates:normal;font-feature-settings:normal;text-indent:0;text-align:start;text-decoration:none;text-decoration-line:none;text-decoration-style:solid;text-decoration-color:#000000;letter-spacing:normal;word-spacing:normal;text-transform:none;writing-mode:lr-tb;direction:ltr;text-orientation:mixed;dominant-baseline:auto;baseline-shift:baseline;text-anchor:start;white-space:normal;shape-padding:0;clip-rule:nonzero;display:inline;overflow:visible;visibility:visible;opacity:1;isolation:auto;mix-blend-mode:normal;color-interpolation:sRGB;color-interpolation-filters:linearRGB;solid-color:#000000;solid-opacity:1;vector-effect:none;fill-opacity:1;fill-rule:nonzero;stroke:none;stroke-width:10.04673195;stroke-linecap:butt;stroke-linejoin:miter;stroke-miterlimit:4;stroke-dasharray:none;stroke-dashoffset:0;stroke-opacity:1;color-rendering:auto;image-rendering:auto;shape-rendering:auto;text-rendering:auto;enable-background:accumulate"
   d="M 463.47423,-2.8907422e-4 C 233.61914,-2.8907422e-4 44.485907,189.13284 44.485907,418.94203 c 0,229.83914 189.133233,418.98797 418.988323,418.98797 229.7794,0 418.94174,-189.14837 418.94174,-418.98797 0,-229.80966 -189.16234,-418.94231907422 -418.94174,-418.94231907422 z m 0,10.05386607422 c 224.2661,0 408.8888,184.592093 408.8888,408.888453 0,224.32714 -184.6227,408.93397 -408.8888,408.93397 -224.34415,0 -408.95634,-184.60637 -408.95634,-408.93397 0,-224.29682 184.61219,-408.888453 408.95634,-408.888453 z"
   id="path9468"
   inkscape:connector-curvature="0"
   inkscape:export-xdpi="96"
   inkscape:export-ydpi="96" /><path
   inkscape:connector-curvature="0"
   id="path9470"
   style="opacity:1;fill-opacity:1;fill-rule:nonzero;stroke:none;stroke-width:15.52817822"
   d="m 469.18433,42.639344 c 0,1.8471 -1.5373,3.369233 -3.38553,3.369233 -1.8634,0 -3.4158,-1.522133 -3.4158,-3.369233 0,-1.863367 1.5524,-3.370367 3.4158,-3.370367 1.84823,0 3.38553,1.507 3.38553,3.370367"
   inkscape:export-xdpi="96"
   inkscape:export-ydpi="96" /><path
   inkscape:connector-curvature="0"
   id="path9472"
   style="opacity:1;fill-opacity:1;fill-rule:nonzero;stroke:none;stroke-width:15.52817822"
   d="m 492.5232,93.726277 c 0,2.298967 -1.92513,4.162334 -4.1775,4.162334 -2.28263,0 -4.16117,-1.863367 -4.16117,-4.162334 0,-2.266333 1.87854,-4.161166 4.16117,-4.161166 2.25237,0 4.1775,1.894833 4.1775,4.161166"
   inkscape:export-xdpi="96"
   inkscape:export-ydpi="96" /><path
   inkscape:connector-curvature="0"
   id="path9474"
   style="opacity:1;fill-opacity:1;fill-rule:nonzero;stroke:none;stroke-width:15.52817822"
   d="m 553.17623,177.25241 c 0,2.2675 -1.86336,4.13086 -4.09943,4.13086 -2.3292,0 -4.20773,-1.86336 -4.20773,-4.13086 0,-2.28267 1.87853,-4.16117 4.20773,-4.16117 2.23607,0 4.09943,1.8785 4.09943,4.16117"
   inkscape:export-xdpi="96"
   inkscape:export-ydpi="96" /><path
   inkscape:connector-curvature="0"
   id="path9476"
   style="opacity:1;fill-opacity:1;fill-rule:nonzero;stroke:none;stroke-width:15.52817822"
   d="m 455.64337,122.51554 c 0,1.86337 -1.4907,3.38553 -3.33777,3.38553 -1.84827,0 -3.3704,-1.52216 -3.3704,-3.38553 0,-1.8471 1.52213,-3.36923 3.3704,-3.36923 1.84707,0 3.33777,1.52213 3.33777,3.36923"
   inkscape:export-xdpi="96"
   inkscape:export-ydpi="96" /><path
   inkscape:connector-curvature="0"
   id="path9478"
   style="opacity:1;fill-opacity:1;fill-rule:nonzero;stroke:none;stroke-width:15.52817822"
   d="m 491.9793,141.72467 c 0,1.84707 -1.4907,3.3692 -3.33777,3.3692 -1.8634,0 -3.3704,-1.52213 -3.3704,-3.3692 0,-1.84826 1.507,-3.3704 3.3704,-3.3704 1.84707,0 3.33777,1.52214 3.33777,3.3704"
   inkscape:export-xdpi="96"
   inkscape:export-ydpi="96" /><path
   inkscape:connector-curvature="0"
   id="path9480"
   style="opacity:1;fill-opacity:1;fill-rule:nonzero;stroke:none;stroke-width:15.52817822"
   d="m 444.7426,88.027844 c 0,2.2675 -1.86337,4.146 -4.11457,4.146 -2.3141,0 -4.16116,-1.8785 -4.16116,-4.146 0,-2.282667 1.84706,-4.146033 4.16116,-4.146033 2.2512,0 4.11457,1.863366 4.11457,4.146033"
   inkscape:export-xdpi="96"
   inkscape:export-ydpi="96" /><path
   inkscape:connector-curvature="0"
   id="path9482"
   style="opacity:1;fill-opacity:1;fill-rule:nonzero;stroke:none;stroke-width:15.52817822"
   d="m 389.78913,121.47554 c 0,1.84823 -1.4907,3.3692 -3.3704,3.3692 -1.84706,0 -3.3692,-1.52097 -3.3692,-3.3692 0,-1.84827 1.52214,-3.36923 3.3692,-3.36923 1.8797,0 3.3704,1.52096 3.3704,3.36923"
   inkscape:export-xdpi="96"
   inkscape:export-ydpi="96" /><path
   inkscape:connector-curvature="0"
   id="path9484"
   style="opacity:1;fill-opacity:1;fill-rule:nonzero;stroke:none;stroke-width:15.52817822"
   d="m 399.66507,128.23027 c 0,1.84827 -1.5373,3.36924 -3.3704,3.36924 -1.84707,0 -3.38437,-1.52097 -3.38437,-3.36924 0,-1.84823 1.5373,-3.38553 3.38437,-3.38553 1.8331,0 3.3704,1.5373 3.3704,3.38553"
   inkscape:export-xdpi="96"
   inkscape:export-ydpi="96" /><path
   inkscape:connector-curvature="0"
   id="path9486"
   style="opacity:1;fill-opacity:1;fill-rule:nonzero;stroke:none;stroke-width:15.52817822"
   d="m 409.4944,134.96991 c 0,1.84706 -1.5373,3.38436 -3.3704,3.38436 -1.86337,0 -3.36923,-1.5373 -3.36923,-3.38436 0,-1.84824 1.50586,-3.3704 3.36923,-3.3704 1.8331,0 3.3704,1.52216 3.3704,3.3704"
   inkscape:export-xdpi="96"
   inkscape:export-ydpi="96" /><path
   inkscape:connector-curvature="0"
   id="path9488"
   style="opacity:1;fill-opacity:1;fill-rule:nonzero;stroke:none;stroke-width:15.52817822"
   d="m 394.46273,147.93554 c 0,1.8634 -1.5373,3.36923 -3.36923,3.36923 -1.84823,0 -3.38553,-1.50583 -3.38553,-3.36923 0,-1.83193 1.5373,-3.35407 3.38553,-3.35407 1.83193,0 3.36923,1.52214 3.36923,3.35407"
   inkscape:export-xdpi="96"
   inkscape:export-ydpi="96" /><path
   inkscape:connector-curvature="0"
   id="path9490"
   style="opacity:1;fill-opacity:1;fill-rule:nonzero;stroke:none;stroke-width:15.52817822"
   d="m 316.13899,202.92047 c 0,1.84824 -1.52216,3.38554 -3.37039,3.38554 -1.86338,0 -3.38437,-1.5373 -3.38437,-3.38554 0,-1.84706 1.52099,-3.36923 3.38437,-3.36923 1.84823,0 3.37039,1.52217 3.37039,3.36923"
   inkscape:export-xdpi="96"
   inkscape:export-ydpi="96" /><path
   inkscape:connector-curvature="0"
   id="path9492"
   style="opacity:1;fill-opacity:1;fill-rule:nonzero;stroke:none;stroke-width:15.52817822"
   d="m 330.65705,220.56087 c 0,1.83194 -1.50584,3.36924 -3.36922,3.36924 -1.84825,0 -3.38552,-1.5373 -3.38552,-3.36924 0,-1.84823 1.53727,-3.38553 3.38552,-3.38553 1.86338,0 3.36922,1.5373 3.36922,3.38553"
   inkscape:export-xdpi="96"
   inkscape:export-ydpi="96" /><path
   inkscape:connector-curvature="0"
   id="path9494"
   style="opacity:1;fill-opacity:1;fill-rule:nonzero;stroke:none;stroke-width:15.52817822"
   d="m 319.24384,505.33213 c 0,1.84824 -1.52099,3.36924 -3.38437,3.36924 -1.8331,0 -3.37037,-1.521 -3.37037,-3.36924 0,-1.8634 1.53727,-3.36923 3.37037,-3.36923 1.86338,0 3.38437,1.50583 3.38437,3.36923"
   inkscape:export-xdpi="96"
   inkscape:export-ydpi="96" /><path
   inkscape:connector-curvature="0"
   id="path9496"
   style="opacity:1;fill-opacity:1;fill-rule:nonzero;stroke:none;stroke-width:15.52817822"
   d="m 321.325,583.9051 c 0,2.28267 -1.89481,4.16117 -4.16114,4.16117 -2.26751,0 -4.14604,-1.8785 -4.14604,-4.16117 0,-2.2675 1.87853,-4.13087 4.14604,-4.13087 2.26633,0 4.16114,1.86337 4.16114,4.13087"
   inkscape:export-xdpi="96"
   inkscape:export-ydpi="96" /><path
   inkscape:connector-curvature="0"
   id="path9498"
   style="opacity:1;fill-opacity:1;fill-rule:nonzero;stroke:none;stroke-width:15.52817822"
   d="m 276.72846,624.1227 c 0,1.84823 -1.55359,3.36923 -3.41697,3.36923 -1.8005,0 -3.33778,-1.521 -3.33778,-3.36923 0,-1.8634 1.53728,-3.36923 3.33778,-3.36923 1.86338,0 3.41697,1.50583 3.41697,3.36923"
   inkscape:export-xdpi="96"
   inkscape:export-ydpi="96" /><path
   inkscape:connector-curvature="0"
   id="path9500"
   style="opacity:1;fill-opacity:1;fill-rule:nonzero;stroke:none;stroke-width:15.52817822"
   d="m 223.26455,640.45873 c 0,2.26634 -1.84823,4.14604 -4.13087,4.14604 -2.29779,0 -4.12973,-1.8797 -4.12973,-4.14604 0,-2.28266 1.83194,-4.14603 4.12973,-4.14603 2.28264,0 4.13087,1.86337 4.13087,4.14603"
   inkscape:export-xdpi="96"
   inkscape:export-ydpi="96" /><path
   inkscape:connector-curvature="0"
   id="path9502"
   style="opacity:1;fill-opacity:1;fill-rule:nonzero;stroke:none;stroke-width:15.52817822"
   d="m 212.36377,604.13793 c 0,2.28264 -1.83192,4.14604 -4.11458,4.14604 -2.31408,0 -4.16233,-1.8634 -4.16233,-4.14604 0,-2.2675 1.84825,-4.13086 4.16233,-4.13086 2.28266,0 4.11458,1.86336 4.11458,4.13086"
   inkscape:export-xdpi="96"
   inkscape:export-ydpi="96" /><path
   inkscape:connector-curvature="0"
   id="path9504"
   style="opacity:1;fill-opacity:1;fill-rule:nonzero;stroke:none;stroke-width:15.52817822"
   d="m 206.16803,627.2287 c 0,1.8634 -1.53728,3.3541 -3.36922,3.3541 -1.84825,0 -3.38555,-1.4907 -3.38555,-3.3541 0,-1.8331 1.5373,-3.37037 3.38555,-3.37037 1.83194,0 3.36922,1.53727 3.36922,3.37037"
   inkscape:export-xdpi="96"
   inkscape:export-ydpi="96" /><path
   inkscape:connector-curvature="0"
   id="path9506"
   style="opacity:1;fill-opacity:1;fill-rule:nonzero;stroke:none;stroke-width:15.52817822"
   d="m 166.24508,608.05103 c 0,1.83194 -1.5373,3.35407 -3.4158,3.35407 -1.84825,0 -3.3704,-1.52213 -3.3704,-3.35407 0,-1.84823 1.52215,-3.38553 3.3704,-3.38553 1.8785,0 3.4158,1.5373 3.4158,3.38553"
   inkscape:export-xdpi="96"
   inkscape:export-ydpi="96" /><path
   inkscape:connector-curvature="0"
   id="path9508"
   style="opacity:1;fill-opacity:1;fill-rule:nonzero;stroke:none;stroke-width:15.52817822"
   d="m 305.76577,672.8967 c 0,1.83197 -1.52214,3.3541 -3.35408,3.3541 -1.84824,0 -3.38553,-1.52213 -3.38553,-3.3541 0,-1.87853 1.53729,-3.3855 3.38553,-3.3855 1.83194,0 3.35408,1.50697 3.35408,3.3855"
   inkscape:export-xdpi="96"
   inkscape:export-ydpi="96" /><path
   inkscape:connector-curvature="0"
   id="path9510"
   style="opacity:1;fill-opacity:1;fill-rule:nonzero;stroke:none;stroke-width:15.52817822"
   d="m 347.75357,642.01117 c 0,2.2675 -1.84707,4.16116 -4.146,4.16116 -2.23607,0 -4.1146,-1.89366 -4.1146,-4.16116 0,-2.28264 1.87853,-4.16117 4.1146,-4.16117 2.29893,0 4.146,1.87853 4.146,4.16117"
   inkscape:export-xdpi="96"
   inkscape:export-ydpi="96" /><path
   inkscape:connector-curvature="0"
   id="path9512"
   style="opacity:1;fill-opacity:1;fill-rule:nonzero;stroke:none;stroke-width:15.52817822"
   d="m 352.44347,681.7012 c 0,1.84823 -1.52214,3.3692 -3.3855,3.3692 -1.8634,0 -3.36924,-1.52097 -3.36924,-3.3692 0,-1.86337 1.50584,-3.38553 3.36924,-3.38553 1.86336,0 3.3855,1.52216 3.3855,3.38553"
   inkscape:export-xdpi="96"
   inkscape:export-ydpi="96" /><path
   inkscape:connector-curvature="0"
   id="path9514"
   style="opacity:1;fill-opacity:1;fill-rule:nonzero;stroke:none;stroke-width:15.52817822"
   d="m 525.1941,643.82797 c 0,1.86336 -1.53733,3.3855 -3.36923,3.3855 -1.84824,0 -3.38557,-1.52214 -3.38557,-3.3855 0,-1.84824 1.53733,-3.36924 3.38557,-3.36924 1.8319,0 3.36923,1.521 3.36923,3.36924"
   inkscape:export-xdpi="96"
   inkscape:export-ydpi="96" /><path
   inkscape:connector-curvature="0"
   id="path9516"
   style="opacity:1;fill-opacity:1;fill-rule:nonzero;stroke:none;stroke-width:15.52817822"
   d="m 444.7426,672.35283 c 0,1.84824 -1.521,3.3704 -3.36923,3.3704 -1.8168,0 -3.3541,-1.52216 -3.3541,-3.3704 0,-1.84706 1.5373,-3.36923 3.3541,-3.36923 1.84823,0 3.36923,1.52217 3.36923,3.36923"
   inkscape:export-xdpi="96"
   inkscape:export-ydpi="96" /><path
   inkscape:connector-curvature="0"
   id="path9518"
   style="opacity:1;fill-opacity:1;fill-rule:nonzero;stroke:none;stroke-width:15.52817822"
   d="m 661.06603,713.3321 c 0,1.86337 -1.52216,3.3855 -3.38553,3.3855 -1.83193,0 -3.36923,-1.52213 -3.36923,-3.3855 0,-1.84823 1.53726,-3.36923 3.36923,-3.36923 1.86333,0 3.38553,1.521 3.38553,3.36923"
   inkscape:export-xdpi="96"
   inkscape:export-ydpi="96" /><path
   inkscape:connector-curvature="0"
   id="path9520"
   style="opacity:1;fill-opacity:1;fill-rule:nonzero;stroke:none;stroke-width:15.52817822"
   d="m 678.7367,553.82663 c 0,2.29777 -1.89367,4.16117 -4.1763,4.16117 -2.28263,0 -4.16233,-1.8634 -4.16233,-4.16117 0,-2.2675 1.8797,-4.1309 4.16233,-4.1309 2.28263,0 4.1763,1.8634 4.1763,4.1309"
   inkscape:export-xdpi="96"
   inkscape:export-ydpi="96" /><path
   inkscape:connector-curvature="0"
   id="path9522"
   style="opacity:1;fill-opacity:1;fill-rule:nonzero;stroke:none;stroke-width:15.52817822"
   d="m 645.52193,576.38867 c 0,1.8634 -1.50583,3.38556 -3.36923,3.38556 -1.84823,0 -3.3855,-1.52216 -3.3855,-3.38556 0,-1.84707 1.53723,-3.3692 3.3855,-3.3692 1.8634,0 3.36923,1.52213 3.36923,3.3692"
   inkscape:export-xdpi="96"
   inkscape:export-ydpi="96" /><path
   inkscape:connector-curvature="0"
   id="path9524"
   style="opacity:1;fill-opacity:1;fill-rule:nonzero;stroke:none;stroke-width:15.52817822"
   d="m 678.194,582.88027 c 0,2.2663 -1.84823,4.146 -4.146,4.146 -2.2524,0 -4.16237,-1.8797 -4.16237,-4.146 0,-2.26754 1.90997,-4.1309 4.16237,-4.1309 2.29773,0 4.146,1.86336 4.146,4.1309"
   inkscape:export-xdpi="96"
   inkscape:export-ydpi="96" /><path
   inkscape:connector-curvature="0"
   id="path9526"
   style="opacity:1;fill-opacity:1;fill-rule:nonzero;stroke:none;stroke-width:15.52817822"
   d="m 645.52193,623.0827 c 0,1.84707 -1.50583,3.36923 -3.36923,3.36923 -1.84823,0 -3.3855,-1.52216 -3.3855,-3.36923 0,-1.84823 1.53723,-3.3541 3.3855,-3.3541 1.8634,0 3.36923,1.50587 3.36923,3.3541"
   inkscape:export-xdpi="96"
   inkscape:export-ydpi="96" /><path
   inkscape:connector-curvature="0"
   id="path9528"
   style="opacity:1;fill-opacity:1;fill-rule:nonzero;stroke:none;stroke-width:15.52817822"
   d="m 730.05773,531.26457 c 0,1.8471 -1.4907,3.3541 -3.36923,3.3541 -1.86337,0 -3.37043,-1.507 -3.37043,-3.3541 0,-1.84824 1.50703,-3.37037 3.37043,-3.37037 1.87853,0 3.36923,1.52213 3.36923,3.37037"
   inkscape:export-xdpi="96"
   inkscape:export-ydpi="96" /><path
   inkscape:connector-curvature="0"
   id="path9530"
   style="opacity:1;fill-opacity:1;fill-rule:nonzero;stroke:none;stroke-width:15.52817822"
   d="m 738.36493,551.76177 c 0,2.2512 -1.84706,4.16116 -4.16116,4.16116 -2.2512,0 -4.14604,-1.90996 -4.14604,-4.16116 0,-2.2675 1.89484,-4.16234 4.14604,-4.16234 2.3141,0 4.16116,1.89484 4.16116,4.16234"
   inkscape:export-xdpi="96"
   inkscape:export-ydpi="96" /><path
   inkscape:connector-curvature="0"
   id="path9532"
   style="opacity:1;fill-opacity:1;fill-rule:nonzero;stroke:none;stroke-width:15.52817822"
   d="m 796.45587,576.14063 c 0,2.28264 -1.87857,4.14604 -4.16117,4.14604 -2.2512,0 -4.1146,-1.8634 -4.1146,-4.14604 0,-2.28266 1.8634,-4.16116 4.1146,-4.16116 2.2826,0 4.16117,1.8785 4.16117,4.16116"
   inkscape:export-xdpi="96"
   inkscape:export-ydpi="96" /><path
   inkscape:connector-curvature="0"
   id="path9534"
   style="opacity:1;fill-opacity:1;fill-rule:nonzero;stroke:none;stroke-width:15.52817822"
   d="m 737.3249,619.4491 c 0,1.84707 -1.53727,3.38437 -3.36923,3.38437 -1.8482,0 -3.3855,-1.5373 -3.3855,-3.38437 0,-1.84823 1.5373,-3.3704 3.3855,-3.3704 1.83196,0 3.36923,1.52217 3.36923,3.3704"
   inkscape:export-xdpi="96"
   inkscape:export-ydpi="96" /><path
   inkscape:connector-curvature="0"
   id="path9536"
   style="opacity:1;fill-opacity:1;fill-rule:nonzero;stroke:none;stroke-width:15.52817822"
   d="m 774.65427,584.1846 c 0,1.83197 -1.521,3.36923 -3.32264,3.36923 -1.86336,0 -3.3855,-1.53726 -3.3855,-3.36923 0,-1.87967 1.5221,-3.3855 3.3855,-3.3855 1.80164,0 3.32264,1.50583 3.32264,3.3855"
   inkscape:export-xdpi="96"
   inkscape:export-ydpi="96" /><path
   inkscape:connector-curvature="0"
   id="path9538"
   style="opacity:1;fill-opacity:1;fill-rule:nonzero;stroke:none;stroke-width:15.52817822"
   d="m 767.94613,638.62563 c 0,1.8634 -1.52103,3.38554 -3.36926,3.38554 -1.86337,0 -3.3692,-1.52214 -3.3692,-3.38554 0,-1.83193 1.5058,-3.35406 3.3692,-3.35406 1.84823,0 3.36926,1.52213 3.36926,3.35406"
   inkscape:export-xdpi="96"
   inkscape:export-ydpi="96" /><path
   inkscape:connector-curvature="0"
   id="path9540"
   style="opacity:1;fill-opacity:1;fill-rule:nonzero;stroke:none;stroke-width:15.52817822"
   d="m 541.82477,84.129877 c 0.55903,-2.1266 2.23606,-3.773366 4.37896,-4.2392 l 1.196,-8.881333 1.77024,8.944233 c 2.06486,0.6056 3.6802,2.3129 4.17746,4.425534 l 8.94424,1.288066 -9.02227,1.583867 c -0.57067,2.066033 -2.2512,3.6499 -4.33237,4.177467 l -1.5373,9.130569 -1.50583,-9.208603 c -2.01947,-0.593966 -3.6499,-2.2046 -4.1309,-4.269466 l -8.66473,-1.413834 8.72646,-1.5373"
   inkscape:export-xdpi="96"
   inkscape:export-ydpi="96" /><path
   inkscape:connector-curvature="0"
   id="path9542"
   style="opacity:1;fill-opacity:1;fill-rule:nonzero;stroke:none;stroke-width:15.52817822"
   d="m 309.21303,720.4281 c 0.59396,-2.11147 2.31408,-3.77337 4.45698,-4.2392 l 1.1949,-8.88137 1.73993,8.97454 c 2.06485,0.57066 3.68017,2.28263 4.12971,4.39523 l 9.02227,1.28807 -9.08399,1.60016 c -0.59395,2.04974 -2.20461,3.6639 -4.28578,4.16117 l -1.52214,9.14573 -1.5373,-9.20746 c -2.04972,-0.60557 -3.61729,-2.23604 -4.12973,-4.28577 l -8.63443,-1.41383 8.64958,-1.53727"
   inkscape:export-xdpi="96"
   inkscape:export-ydpi="96" /><path
   inkscape:connector-curvature="0"
   id="path9544"
   style="opacity:1;fill-opacity:1;fill-rule:nonzero;stroke:none;stroke-width:15.52817822"
   d="m 736.93713,638.37757 c 0.59394,-2.0963 2.3129,-3.7419 4.45577,-4.22407 l 1.1297,-8.88133 1.73877,8.95936 c 2.0963,0.59397 3.69533,2.2978 4.17746,4.42554 l 8.99084,1.27293 -9.084,1.60017 c -0.54737,2.04973 -2.23607,3.64873 -4.27064,4.16116 l -1.55243,9.13057 -1.507,-9.2086 c -2.04973,-0.59393 -3.60217,-2.21973 -4.12973,-4.26947 l -8.69617,-1.41383 8.74277,-1.55243"
   inkscape:export-xdpi="96"
   inkscape:export-ydpi="96" /><path
   inkscape:connector-curvature="0"
   id="path9546"
   style="opacity:1;fill-opacity:1;fill-rule:nonzero;stroke:none;stroke-width:15.52817822"
   d="m 770.83437,546.9007 c 0.51243,-2.1266 2.23603,-3.74193 4.37893,-4.2392 l 1.19607,-8.88137 1.73876,8.97454 c 2.08117,0.59393 3.68017,2.28263 4.13084,4.42553 l 9.0223,1.27407 -9.08397,1.599 c -0.59397,2.0183 -2.2058,3.64876 -4.28583,4.1309 l -1.5221,9.1457 -1.55247,-9.19227 c -2.01943,-0.5707 -3.60327,-2.22093 -4.05283,-4.27063 l -8.6962,-1.4127 8.72646,-1.55357"
   inkscape:export-xdpi="96"
   inkscape:export-ydpi="96" /><path
   inkscape:connector-curvature="0"
   id="path9548"
   style="opacity:1;fill-opacity:1;fill-rule:nonzero;stroke:none;stroke-width:15.52817822"
   d="m 350.7513,208.97647 c 0.57067,-2.1266 2.2512,-3.75706 4.39407,-4.2392 l 1.17976,-8.88133 1.78654,8.95937 c 2.08,0.59393 3.66386,2.29776 4.1297,4.42553 l 8.99083,1.2729 -9.0374,1.6002 c -0.59397,2.0497 -2.23607,3.64873 -4.3475,4.16117 l -1.52217,9.13056 -1.53726,-9.2086 c -2.00314,-0.59396 -3.58704,-2.21976 -4.08317,-4.26946 l -8.68103,-1.41387 8.72763,-1.53727"
   inkscape:export-xdpi="96"
   inkscape:export-ydpi="96" /><path
   inkscape:connector-curvature="0"
   id="path9550"
   style="opacity:1;fill-opacity:1;fill-rule:nonzero;stroke:none;stroke-width:15.52817822"
   d="m 323.34329,401.55693 c 30.54431,53.43247 66.19664,92.54834 94.89268,129.69134 25.49806,32.95156 75.12573,49.47276 57.67166,65.12516 -19.7204,17.62527 -67.4381,-60.1709 -67.4381,-60.1709 C 376.74547,497.95663 346.3875,457.3815 315.45536,404.3054 l 7.88793,-2.74847"
   inkscape:export-xdpi="96"
   inkscape:export-ydpi="96" /><path
   inkscape:connector-curvature="0"
   id="path9552"
   style="opacity:1;fill:#191919;fill-opacity:1;fill-rule:nonzero;stroke:none;stroke-width:15.52817822"
   d="M 693.5972,324.8322 C 459.16867,432.1327 172.68888,446.80683 10.667867,545.47287 L 0,541.76123 c 147.76617,-97.03556 405.65817,-159.67663 618.02193,-244.0098 22.8113,-9.06883 45.26504,-18.41603 67.1749,-28.1522"
   inkscape:export-xdpi="96"
   inkscape:export-ydpi="96" /><path
   inkscape:connector-curvature="0"
   id="path9554"
   style="opacity:1;fill-opacity:1;fill-rule:nonzero;stroke:none;stroke-width:15.52817822"
   d="m 343.5144,344.32083 h 74.02283 l 52.99807,133.60444 17.73353,17.74873 h -96.3531 l 17.68697,-17.74873 -6.2889,-16.28944 h -53.15297 l -5.49696,18.61867 12.70243,15.4195 H 307.07014 L 324.75713,477.92527 358.8873,359.7869 Z m 50.3579,93.91444 -21.39747,-54.2407 -15.699,54.2407 h 37.09647"
   inkscape:export-xdpi="96"
   inkscape:export-ydpi="96" /><path
   inkscape:connector-curvature="0"
   id="path9556"
   style="opacity:1;fill-opacity:1;fill-rule:nonzero;stroke:none;stroke-width:15.52817822"
   d="m 687.30827,344.32083 h 76.81793 l 53.0295,133.60444 17.68577,17.74873 H 738.5047 l 17.67183,-17.74873 -6.27376,-16.28944 H 696.7498 l -5.49697,18.61867 12.65584,15.4195 H 653.6591 l 17.68693,-17.74873 34.11504,-118.13837 z m 53.15296,93.91444 -21.39743,-54.2407 -15.699,54.2407 h 37.09643"
   inkscape:export-xdpi="96"
   inkscape:export-ydpi="96" /><path
   inkscape:connector-curvature="0"
   id="path9558"
   style="opacity:1;fill-opacity:1;fill-rule:nonzero;stroke:none;stroke-width:15.52817822"
   d="m 243.10958,438.59163 c 0,-6.5521 0,-78.80473 0,-78.80473 l -15.37291,-15.46607 h 51.22786 l -15.38921,15.46607 v 118.13837 l 17.687,17.74873 h -67.25295 l -57.93486,-98.01387 c 0,3.7419 0,80.26514 0,80.26514 l 14.89075,17.74873 h -53.52564 l 17.687,-17.74873 V 359.7869 l -15.34147,-15.46607 h 66.97228 l 56.35215,94.2708"
   inkscape:export-xdpi="96"
   inkscape:export-ydpi="96" /><path
   inkscape:connector-curvature="0"
   id="path9560"
   style="opacity:1;fill-opacity:1;fill-rule:nonzero;stroke:none;stroke-width:15.52817822"
   d="m 630.72433,383.12577 -1.6002,-47.11327 -15.8387,10.94737 c -22.3909,-7.79477 -48.3699,-7.50014 -66.58446,1.12966 -17.00334,8.0428 -35.34254,24.9996 -33.09017,49.11524 2.20463,24.09933 20.91647,33.46283 37.74863,41.08756 21.7084,9.82934 45.2953,13.15197 44.93894,26.1188 -0.23294,8.2757 -13.96024,14.19197 -24.5815,13.8356 -9.73617,-0.29116 -41.35194,-2.65533 -57.88944,-22.31403 l 3.12117,49.5811 17.64037,-12.9505 c 21.49063,7.57817 47.45453,10.76103 71.55386,2.9197 23.88274,-7.79593 49.00694,-27.79583 35.06304,-62.7657 -5.97914,-15.06193 -22.54694,-24.3474 -32.39257,-28.36997 -9.0211,-3.69533 -36.55257,-14.51806 -44.239,-18.52433 -9.02227,-4.6899 -8.02887,-19.55037 13.61783,-22.56323 19.59694,-2.73217 46.70914,12.95053 52.5322,19.86133"
   inkscape:export-xdpi="96"
   inkscape:export-ydpi="96" /><path
   inkscape:connector-curvature="0"
   id="path9584"
   style="opacity:1;fill:url(#linearGradient9582-339);stroke:none;stroke-width:15.52817822"
   d="M 114.4128,774.1093 C 411.1866,471.26323 853.47647,331.33877 1000,42.530244 911.76887,323.31073 439.1373,478.18883 113.62087,788.3487 l 0.79193,-14.2394"
   inkscape:export-xdpi="96"
   inkscape:export-ydpi="96" /><path
   inkscape:connector-curvature="0"
   id="path9586"
   style="opacity:1;fill-opacity:1;fill-rule:nonzero;stroke:none;stroke-width:15.52817822"
   d="m 315.45536,404.3054 c -3.50897,-5.9628 -6.98769,-12.06537 -10.48152,-18.338 -79.08542,-142.33203 -67.68734,-287.566356 75.48209,-224.27426 121.50877,53.69687 237.566,204.38266 284.22854,311.35589 21.64553,49.5811 79.613,244.14957 -107.09784,165.3134 l -0.36106,-1.12966 c 176.3691,72.62526 145.87136,-111.3988 51.44446,-252.4882 C 555.2539,304.89867 485.61003,238.39227 441.6645,206.31067 295.40536,99.430577 206.16453,164.80384 308.85199,374.35623 c 4.65847,9.4881 9.48812,18.5255 14.4878,27.20534 l -7.88792,2.7485"
   inkscape:export-xdpi="96"
   inkscape:export-ydpi="96" /><path
   inkscape:connector-curvature="0"
   id="path9588"
   style="opacity:1;fill:#191919;fill-opacity:1;fill-rule:nonzero;stroke:none;stroke-width:15.52817822"
   d="M 685.19683,269.59923 C 818.61497,210.37401 933.7568,137.62524 1000,42.529877 931.5207,182.09717 820.13707,266.92763 693.5972,324.8322"
   inkscape:export-xdpi="96"
   inkscape:export-ydpi="96" /></svg>